HIERARCHY
ROOT Hips
{
     OFFSET 1.88212 96.90440 -13.34250
     CHANNELS 6 Xposition Yposition Zposition Zrotation Xrotation Yrotation
     JOINT Spine
     {
          OFFSET 0.00000 11.89050 0.00000
          CHANNELS 3 Zrotation Xrotation Yrotation
          JOINT Spine1
          {
               OFFSET -0.00000 25.65740 0.12766
               CHANNELS 3 Zrotation Xrotation Yrotation
               JOINT HEad
               {
                    OFFSET 0.00000 8.73416 0.01134
                    CHANNELS 3 Zrotation Xrotation Yrotation
                    End Site
                    {
                         OFFSET -0.29000 12.77420 2.51395
                    }
               }
               JOINT LeftShoulder1
               {
                    OFFSET 8.99000 -0.36225 -0.22000
                    CHANNELS 3 Zrotation Xrotation Yrotation
                    JOINT LeftArm
                    {
                         OFFSET 10.28270 -0.00338 0.32212
                         CHANNELS 3 Zrotation Xrotation Yrotation
                         JOINT LeftForeArm
                         {
                              OFFSET 32.76690 0.09914 -1.42434
                              CHANNELS 3 Zrotation Xrotation Yrotation
                              JOINT LeftHand
                              {
                                   OFFSET 27.56430 0.08536 1.02216
                                   CHANNELS 3 Zrotation Xrotation Yrotation
                                   End Site
                                   {
                                        OFFSET 16.74430 -0.60000 1.50291
                                   }
                              }
                         }
                    }
               }
               JOINT RightShoulder
               {
                    OFFSET -8.99000 -0.36225 -0.22000
                    CHANNELS 3 Zrotation Xrotation Yrotation
                    JOINT RightArm
                    {
                         OFFSET -10.28270 -0.00338 0.32212
                         CHANNELS 3 Zrotation Xrotation Yrotation
                         JOINT RightForeArm
                         {
                              OFFSET -32.89710 0.09914 -1.42434
                              CHANNELS 3 Zrotation Xrotation Yrotation
                              JOINT RightHand
                              {
                                   OFFSET -27.49210 0.08536 1.02216
                                   CHANNELS 3 Zrotation Xrotation Yrotation
                                   End Site
                                   {
                                        OFFSET -16.63120 -0.60000 1.50291
                                   }
                              }
                         }
                    }
               }
          }
     }
     JOINT LeftUpLeg
     {
          OFFSET 8.94580 -8.66707 0.10165
          CHANNELS 3 Zrotation Xrotation Yrotation
          JOINT LeftLeg
          {
               OFFSET 0.00000 -44.42270 1.37270
               CHANNELS 3 Zrotation Xrotation Yrotation
               JOINT LeftFoot
               {
                    OFFSET -0.25355 -42.09240 -1.46059
                    CHANNELS 3 Zrotation Xrotation Yrotation
                    JOINT LeftToes
                    {
                         OFFSET -0.04000 -4.41509 8.49910
                         CHANNELS 3 Zrotation Xrotation Yrotation
                         End Site
                         {
                              OFFSET 0.08000 -0.04745 9.77979
                         }
                    }
               }
          }
     }
     JOINT RightUpLeg
     {
          OFFSET -8.94580 -8.66707 0.10165
          CHANNELS 3 Zrotation Xrotation Yrotation
          JOINT RightLeg
          {
               OFFSET 0.00000 -44.42270 1.37270
               CHANNELS 3 Zrotation Xrotation Yrotation
               JOINT RightFoot
               {
                    OFFSET 0.25355 -42.09240 -1.46059
                    CHANNELS 3 Zrotation Xrotation Yrotation
                    JOINT RightToes
                    {
                         OFFSET 0.04000 -4.41509 8.49910
                         CHANNELS 3 Zrotation Xrotation Yrotation
                         End Site
                         {
                              OFFSET -0.08000 -0.13745 9.77979
                         }
                    }
               }
          }
     }
}
MOTION
Frames: 8
Frame Time: 0.01667
-9.48797 91.81779 7.32195 19.28083 28.92166 107.55253 2.03514 36.67350 -2.46055 -0.01140 0.00770 0.00093 -18.00675 1.10472 18.84877 -6.00611 5.92253 2.63807 -70.87137 -33.95491 -102.72015 20.35537 16.61817 -94.80943 33.83057 17.72062 44.19116 0.49984 6.12429 4.17311 78.40576 6.51310 89.39759 -17.29590 23.41739 98.82828 5.91921 12.36141 -0.95066 -7.66853 -18.50756 32.00525 34.92955 62.57042 -14.97067 -9.25971 -0.01612 0.01540 -25.17415 -27.36253 -22.06942 -20.24544 -1.16852 5.93819 5.68267 34.17653 -13.59245 61.17701 0.01864 -0.01631 -39.73211 17.39457 -13.60984 
-10.06262 91.94917 7.25695 21.52589 32.20974 104.71438 0.73712 38.71955 -1.96779 -0.01223 0.01183 0.00005 -19.62486 -0.83380 19.57687 -6.88235 6.62041 2.71543 -67.44732 -36.27832 -101.08108 22.53002 17.50576 -89.64471 27.36066 29.68233 43.28888 -0.13943 6.86677 4.50510 77.20262 7.70609 89.13648 -16.64649 23.07569 98.71976 2.70695 9.68346 2.53644 -3.02902 -22.18576 36.42501 39.37119 65.75729 -21.74628 -7.23066 -0.11008 -0.04732 -20.78341 -20.65463 -12.09950 -23.72634 -0.00472 8.29766 6.17020 35.30157 -13.78872 65.76538 0.02396 -0.01753 -44.20406 16.86191 -13.24068 
-10.55653 91.92587 7.28897 23.59857 34.99335 102.05071 -0.24004 39.94511 -1.67251 -0.01267 0.01622 -0.00018 -21.09819 -2.32311 20.39234 -7.60969 7.50779 2.91321 -64.98103 -38.20655 -98.83171 24.09050 21.05832 -82.98468 38.65534 16.17111 41.65134 -0.56725 7.78983 4.71684 75.96381 8.64784 88.60606 -16.14038 23.16191 98.59130 6.27936 12.67602 -0.98415 1.86578 -24.95374 40.45453 41.34168 69.19362 -25.49553 -4.32716 -0.00415 -0.09784 -26.75807 -34.53574 -28.82770 -26.82457 0.68454 10.26732 6.53759 35.93825 -14.63328 45.96915 -0.16489 0.21837 -24.57882 17.21132 -12.30499 
-10.96667 91.76147 7.41333 25.42409 37.33493 99.62782 -0.87815 40.42621 -1.61282 -0.01348 0.01950 -0.00038 -22.43685 -3.40898 21.29201 -8.04335 8.47774 3.02879 -58.80189 -41.88185 -91.17916 22.46315 22.30208 -75.90479 29.63329 28.43292 35.87929 -0.79703 8.78257 4.79748 74.67746 9.51296 87.78815 -15.55869 23.47591 98.46375 3.77722 10.51252 1.28676 7.51482 -27.66430 44.23981 41.11381 69.93845 -26.10244 -2.78542 -0.10867 -0.08257 -23.09240 -26.42849 -21.09702 -29.65379 0.65778 10.70174 6.85630 37.09977 -14.22940 25.84078 -0.23926 0.08019 -5.19497 16.92953 -11.14127 
-11.25728 91.62116 7.58517 26.96083 39.37185 97.42986 -1.31313 40.26524 -1.73001 -0.01286 0.02288 -0.00034 -23.66462 -4.12890 22.26755 -8.18688 9.45685 2.87291 -49.69041 -44.81981 -78.60230 19.16256 22.33230 -69.61887 44.06202 20.44340 34.91246 -0.86230 9.78252 4.80606 73.33903 10.41593 86.63324 -14.85423 24.01503 98.19582 5.74331 11.70470 -0.40253 14.51248 -30.52254 48.07400 40.47432 69.31815 -26.07742 -1.26272 -0.09620 -0.10892 -25.59838 -34.99624 -33.70078 -32.23933 0.21750 9.76035 7.04539 38.59783 -12.74927 5.38477 -0.22864 -0.07149 14.01262 16.37160 -9.99159 
-11.34719 91.65010 7.74505 28.20506 41.20108 95.42593 -1.66492 39.54990 -1.95259 -0.01789 0.02573 0.00086 -24.78813 -4.50119 23.30295 -8.07133 10.33270 2.46815 -39.76001 -45.16322 -63.00836 15.69260 21.96802 -65.14179 28.47193 21.64295 32.67047 9.66895 5.36238 2.45495 63.08727 14.34689 80.21555 -8.45335 25.63455 94.51484 0.83411 -2.83141 3.53874 22.98100 -33.16073 52.03548 38.22669 68.00989 -24.93898 -0.38209 -0.06625 -0.08347 -23.96136 -25.31313 -28.36822 -34.43377 -0.28839 8.72871 7.41965 40.04624 -11.55647 -15.19346 -0.14875 -0.18329 33.08540 15.61502 -8.86996 
-11.15555 91.93049 7.80633 29.18065 42.84731 93.57188 -1.90347 38.31390 -2.25475 -0.01306 0.02411 0.00049 -25.87271 -4.50250 24.39240 0.96323 3.97575 -2.70988 -34.99663 -38.77751 -38.24639 13.14460 21.89269 -62.39124 52.64954 12.25375 25.71442 8.62235 6.70918 2.43685 62.72576 15.16404 79.18555 -4.23209 26.43729 92.08796 3.33480 9.83995 3.64079 32.60036 -35.08204 55.91699 33.57694 66.02793 -22.13430 1.23709 -0.06226 -0.17265 -19.85868 -29.34796 -35.40002 -36.44291 -0.70638 7.65972 6.99719 39.68278 -9.33921 2.63618 -0.06787 -0.09309 14.39028 16.06418 -9.13717 
-10.63287 92.50751 7.68862 29.90827 44.30809 91.83516 -1.95062 36.58458 -2.63937 -0.01132 0.02315 0.00125 -26.18505 -3.92962 24.22081 0.38055 5.12967 -2.94642 -31.70788 -35.66467 -29.85124 9.53692 23.61632 -56.09510 31.93180 17.37705 29.51163 8.06253 7.69838 2.50665 61.98669 16.22080 77.37862 -1.40736 26.75350 90.76240 0.14042 4.83258 5.09169 42.70826 -35.97577 59.27644 26.41540 63.14680 -17.64533 2.82899 -0.04377 -0.19967 -7.34263 -25.46983 -27.20767 -38.45502 -0.90335 6.58860 6.04481 39.82983 -6.87217 20.89785 0.04012 0.00559 -4.06055 15.65152 -9.23410 
